#!OML:ASF H:\LiuWeirdWalks\Patient Classification 1\Patient 1\Session 1\male.ASF
:FULLY-SPECIFIED
:DEGREES
583
root 1.33173 16.565 26.7071 -0.964389 9.69895 -4.90965
lowerback 15.7809 0.636949 -2.2466
upperback 0.554906 0.706787 3.01016
thorax -8.34684 0.498948 4.36239
lowerneck -20.5315 0.427465 5.28761
upperneck 19.8675 0.0441652 -4.616
head 9.68221 -0.115737 -2.4861
rclavicle -4.3422e-015 -2.18166e-014
rhumerus -48.1867 -0.460309 -81.0051
rradius 33.017
rwrist 1.13936
rhand -18.2233 -0.640702
rfingers 7.12502
rthumb 8.0548 -30.4672
lclavicle -4.3422e-015 -2.18166e-014
lhumerus -43.505 8.90825 58.9311
lradius 51.6066
lwrist 3.61286
lhand -20.4923 -17.5923
lfingers 7.12502
lthumb 5.86452 12.3066
rfemur 4.42971 -14.71 20.4776
rtibia 78.595
rfoot 37.8561 -11.0819
rtoes 14.4543
lfemur -38.5126 -4.06062 -19.4188
ltibia 53.736
lfoot -9.45762 7.63058
ltoes -10.1894
584
root 1.36504 16.4255 26.8807 -0.954016 9.59896 -4.60891
lowerback 16.0976 0.683633 -2.09245
upperback 0.434996 0.789122 2.93546
thorax -8.65971 0.538247 4.17804
lowerneck -20.2726 0.420559 5.17941
upperneck 19.8643 0.114789 -4.75092
head 9.63772 -0.104806 -2.50352
rclavicle 4.95719e-015 -9.93923e-017
rhumerus -47.5659 -1.4805 -80.3503
rradius 31.8715
rwrist 1.97474
rhand -18.6247 -0.802672
rfingers 7.12502
rthumb 7.66736 -30.6437
lclavicle 4.95719e-015 -9.93923e-017
lhumerus -43.3854 10.0016 58.4735
lradius 50.5977
lwrist 3.36277
lhand -20.6791 -17.6576
lfingers 7.12502
lthumb 5.68417 12.2462
rfemur 4.01306 -15.0608 20.1591
rtibia 80.2595
rfoot 37.8342 -11.4235
rtoes 15.0276
lfemur -39.2318 -4.46907 -19.8471
ltibia 56.2862
lfoot -10.258 8.46098
ltoes -9.61173
585
root 1.40453 16.3091 27.0449 -0.926656 9.19572 -4.69847
lowerback 16.2947 0.77792 -1.47314
upperback 0.347414 1.03084 2.94297
thorax -8.87646 0.633018 3.77615
lowerneck -20.0786 0.426035 5.11683
upperneck 19.8392 0.203745 -4.96924
head 9.59844 -0.092152 -2.55552
rclavicle -1.41883e-014 -5.76476e-015
rhumerus -46.8574 -2.48632 -79.6957
rradius 30.7084
rwrist 2.65287
rhand -19.055 -1.00556
rfingers 7.12502
rthumb 7.25207 -30.8613
lclavicle -1.41883e-014 -5.76476e-015
lhumerus -43.1617 11.1833 58.1204
lradius 49.5571
lwrist 3.22979
lhand -20.8945 -17.6689
lfingers 7.12502
lthumb 5.47617 12.2403
rfemur 3.29097 -15.0253 20.447
rtibia 81.835
rfoot 37.7784 -11.6388
rtoes 15.4546
lfemur -39.839 -4.61393 -19.8095
ltibia 58.54
lfoot -11.1535 9.49931
ltoes -9.68514
586
root 1.44776 16.2157 27.1999 -0.870731 8.51685 -5.05974
lowerback 16.4133 0.918932 -0.556018
upperback 0.293938 1.39883 3.0116
thorax -9.0098 0.773439 3.23829
lowerneck -19.9704 0.452733 5.09498
upperneck 19.8003 0.316564 -5.23857
head 9.57166 -0.071931 -2.62944
rclavicle -7.23079e-015 -1.41137e-014
rhumerus -46.0737 -3.3273 -79.1345
rradius 29.6216
rwrist 3.10532
rhand -19.4307 -1.22105
rfingers 7.12502
rthumb 6.88938 -31.0889
lclavicle -7.23079e-015 -1.41137e-014
lhumerus -42.8969 12.4293 57.8774
lradius 48.5759
lwrist 3.26269
lhand -21.1239 -17.602
lfingers 7.12502
lthumb 5.25468 12.3129
rfemur 2.3042 -14.6428 21.1957
rtibia 83.321
rfoot 37.6459 -11.756
rtoes 15.7029
lfemur -40.3387 -4.49677 -19.4373
ltibia 60.502
lfoot -12.0431 10.5451
ltoes -10.058
587
root 1.49143 16.1433 27.3459 -0.76768 7.63371 -5.5302
lowerback 16.4974 1.09916 0.445201
upperback 0.268859 1.83886 3.10826
thorax -9.08387 0.943002 2.66525
lowerneck -19.9525 0.504302 5.10574
upperneck 19.75 0.451936 -5.52125
head 9.55919 -0.0411455 -2.71101
rclavicle -8.49804e-015 1.76918e-014
rhumerus -45.239 -3.86207 -78.7531
rradius 28.7133
rwrist 3.28728
rhand -19.6563 -1.42563
rfingers 7.12502
rthumb 6.67159 -31.3005
lclavicle -8.49804e-015 1.76918e-014
lhumerus -42.6423 13.6768 57.7513
lradius 47.7239
lwrist 3.50286
lhand -21.3531 -17.4621
lfingers 7.12502
lthumb 5.03339 12.4581
rfemur 1.11166 -14.0025 22.1854
rtibia 84.7312
rfoot 37.3866 -11.826
rtoes 15.7796
lfemur -40.7401 -4.17335 -18.9087
ltibia 62.1809
lfoot -12.8577 11.4666
ltoes -10.5066
588
root 1.53237 16.0895 27.4841 -0.613179 6.63998 -5.9513
lowerback 16.5837 1.30385 1.32798
upperback 0.266453 2.28914 3.19836
thorax -9.1255 1.12132 2.15049
lowerneck -20.0165 0.582187 5.14586
upperneck 19.6861 0.605649 -5.78531
head 9.55863 0.00161909 -2.7889
rclavicle -1.59525e-014 1.0138e-014
rhumerus -44.3865 -3.98041 -78.6147
rradius 28.0809
rwrist 3.19191
rhand -19.6571 -1.60136
rfingers 7.12502
rthumb 6.67083 -31.4763
lclavicle -1.59525e-014 1.0138e-014
lhumerus -42.4296 14.8355 57.7498
lradius 47.043
lwrist 3.97231
lhand -21.5713 -17.2682
lfingers 7.12502
lthumb 4.82273 12.6569
rfemur -0.209347 -13.2265 23.1825
rtibia 86.0751
rfoot 36.9626 -11.904
rtoes 15.7054
lfemur -41.0416 -3.73143 -18.4002
ltibia 63.5838
lfoot -13.5569 12.2059
ltoes -10.9363
589
root 1.5685 16.0524 27.616 -0.420877 5.63429 -6.20723
lowerback 16.6942 1.51186 1.95335
upperback 0.283542 2.69259 3.25439
thorax -9.15619 1.2872 1.75641
lowerneck -20.1472 0.684239 5.21328
upperneck 19.6076 0.77008 -6.00605
head 9.56635 0.0555492 -2.8549
rclavicle 3.31473e-014 -3.97569e-016
rhumerus -43.5529 -3.6295 -78.7407
rradius 27.8008
rwrist 2.86396
rhand -19.3997 -1.73896
rfingers 7.12502
rthumb 6.91932 -31.6059
lclavicle 3.31473e-014 -3.97569e-016
lhumerus -42.2631 15.8029 57.8831
lradius 46.5417
lwrist 4.65957
lhand -21.7741 -17.0568
lfingers 7.12502
lthumb 4.62691 12.8727
rfemur -1.57706 -12.4503 23.9956
rtibia 87.3465
rfoot 36.3669 -12.0393
rtoes 15.5255
lfemur -41.2331 -3.26866 -18.0441
ltibia 64.7151
lfoot -14.1315 12.7571
ltoes -11.3557
590
root 1.59918 16.0305 27.743 -0.212082 4.70495 -6.2401
lowerback 16.8305 1.69942 2.26752
upperback 0.318806 3.00526 3.25922
thorax -9.18508 1.42191 1.50461
lowerneck -20.3309 0.804622 5.30566
upperneck 19.5207 0.934789 -6.16779
head 9.58119 0.117525 -2.90442
rclavicle 2.37548e-014 1.59028e-015
rhumerus -42.7723 -2.83415 -79.1017
rradius 27.9141
rwrist 2.4003
rhand -18.9098 -1.82661
rfingers 7.12502
rthumb 7.39224 -31.6775
lclavicle 2.37548e-014 1.59028e-015
lhumerus -42.1232 16.4843 58.1641
lradius 46.2027
lwrist 5.51831
lhand -21.9605 -16.8584
lfingers 7.12502
lthumb 4.44693 13.0749
rfemur -2.9237 -11.7994 24.5067
rtibia 88.5232
rfoot 35.6279 -12.2717
rtoes 15.295
lfemur -41.3053 -2.87291 -17.9118
ltibia 65.5799
lfoot -14.5817 13.1263
ltoes -11.7807
591
root 1.62499 16.0229 27.8665 -0.00755545 3.91741 -6.04182
lowerback 16.9834 1.8467 2.28839
upperback 0.371662 3.20234 3.20578
thorax -9.21149 1.51285 1.38297
lowerneck -20.5539 0.934836 5.4168
upperneck 19.4334 1.08878 -6.26275
head 9.60244 0.183019 -2.93513
rclavicle 2.59911e-014 3.97569e-016
rhumerus -42.0667 -1.69671 -79.6223
rradius 28.4206
rwrist 1.93615
rhand -18.2672 -1.85153
rfingers 7.12502
rthumb 8.01249 -31.6797
lclavicle 2.59911e-014 3.97569e-016
lhumerus -41.9788 16.8056 58.6068
lradius 46.001
lwrist 6.46902
lhand -22.1298 -16.6983
lfingers 7.12502
lthumb 4.28342 13.2384
rfemur -4.2021 -11.3678 24.6692
rtibia 89.5753
rfoot 34.8018 -12.6259
rtoes 15.0914
lfemur -41.2535 -2.60953 -18.0193
ltibia 66.1889
lfoot -14.9152 13.3319
ltoes -12.2239
